<?xml version="1.0" encoding="UTF-8"?>
<svg version="1.1" xmlns="http://www.w3.org/2000/svg" width="512" height="512">
<path d="M0 0 C1.24081581 -0.0146228 1.24081581 -0.0146228 2.50669861 -0.02954102 C21.39018748 -0.20617802 39.54098932 0.1423099 58.06640625 4.23828125 C59.35828857 4.51913574 59.35828857 4.51913574 60.67626953 4.80566406 C87.6047693 10.85009181 113.55078736 22.3108338 136.06640625 38.23828125 C136.63423828 38.63789062 137.20207031 39.0375 137.78710938 39.44921875 C144.09092775 43.92725898 149.97057601 48.76323774 155.6484375 54.0078125 C157.22899838 55.46580969 158.83007221 56.90195821 160.453125 58.3125 C197.13738617 90.27093042 220.54215121 136.44798561 228.06640625 184.23828125 C228.18209961 184.93276367 228.29779297 185.62724609 228.41699219 186.34277344 C237.07811167 240.13423658 223.36154788 298.60293486 191.85449219 342.94384766 C189.32704342 346.42909891 186.70686114 349.83838125 184.06640625 353.23828125 C182.87576628 354.81925473 181.6878542 356.40229009 180.50390625 357.98828125 C179.69159813 359.07175847 178.87913412 360.15511885 178.06640625 361.23828125 C183.51102798 367.86641962 189.56241714 373.85413092 195.63964844 379.89331055 C196.80991877 381.06001974 197.97995122 382.22696758 199.14976501 383.39413452 C201.65778354 385.89563092 204.16730192 388.39560923 206.67797089 390.89444542 C210.64757668 394.8456889 214.61277264 398.80133793 218.57720947 402.75776672 C229.84703969 414.00349447 241.122814 425.24325128 252.40283203 436.47875977 C258.641339 442.69272794 264.87625423 448.91027755 271.10732961 455.13169795 C275.0482925 459.06611797 278.99371984 462.99598829 282.94250536 466.92255628 C285.3942412 469.36257315 287.84179602 471.80675025 290.2881794 474.25213242 C291.42404917 475.38585275 292.56164328 476.51784846 293.70107079 477.64799309 C295.2548894 479.18963907 296.80243555 480.7373218 298.34857178 482.28666687 C299.2164822 483.15143489 300.08439262 484.01620291 300.97860336 484.90717602 C305.1987021 489.61906443 305.49768396 493.36649008 305.390625 499.54296875 C304.94042469 503.28559786 303.52385717 505.42976591 301.06640625 508.23828125 C300.55078125 508.83640625 300.03515625 509.43453125 299.50390625 510.05078125 C296.57865988 512.46728912 293.38697133 512.45530651 289.75390625 512.55078125 C288.82964844 512.58816406 287.90539062 512.62554688 286.953125 512.6640625 C280.97467283 511.78226103 276.80040947 507.22122926 272.67532349 503.08770752 C272.16792 502.58201288 271.66051651 502.07631824 271.13773715 501.55529952 C269.45179087 499.87262729 267.77305712 498.18294515 266.09423828 496.49316406 C264.88197583 495.28033705 263.66927198 494.06795109 262.4561615 492.85597229 C259.17320299 489.57358653 255.89643843 486.28508021 252.62076426 482.99542713 C249.19305436 479.55519691 245.7596627 476.12064669 242.32687378 472.68548584 C235.83130766 466.18370879 229.34085576 459.67685127 222.85223281 453.1681459 C215.46320367 445.75674574 208.06848043 438.35103806 200.67327714 430.94579935 C185.46464952 415.71627849 170.2631747 400.47963518 155.06640625 385.23828125 C151.19850561 387.51048518 147.75978728 389.99697652 144.25390625 392.80078125 C127.11939195 406.17742421 107.4901389 416.85564266 87.06640625 424.23828125 C86.08099854 424.60880615 86.08099854 424.60880615 85.07568359 424.98681641 C30.8249099 445.29067316 -30.41385528 440.53184449 -82.63183594 416.78393555 C-104.08312784 406.71569517 -122.87713536 392.7682045 -140.18359375 376.67578125 C-140.84536621 376.06259033 -141.50713867 375.44939941 -142.18896484 374.81762695 C-146.74357237 370.53076961 -150.87512324 365.99311976 -154.93359375 361.23828125 C-155.73023438 360.34625 -156.526875 359.45421875 -157.34765625 358.53515625 C-196.81610694 313.06973249 -210.59817903 253.63227599 -206.70214844 194.73974609 C-206.15484605 188.81901731 -205.18502332 183.04735626 -203.93359375 177.23828125 C-203.7619873 176.39426758 -203.59038086 175.55025391 -203.41357422 174.68066406 C-193.03385393 124.27548081 -164.84553665 77.7410728 -123.93359375 46.23828125 C-123.03769531 45.52542969 -122.14179687 44.81257813 -121.21875 44.078125 C-87.29164682 17.69037808 -43.20400615 0.42610463 0 0 Z M-119.53662109 84.90429688 C-120.72790621 86.04186798 -121.93289139 87.16506349 -123.140625 88.28515625 C-129.4685134 94.31662625 -134.68435174 101.27504312 -139.93359375 108.23828125 C-140.89458984 109.50671875 -140.89458984 109.50671875 -141.875 110.80078125 C-170.32921518 149.88406521 -180.74520232 199.75541761 -173.93359375 247.23828125 C-169.19006469 275.93467195 -158.67178483 302.44922611 -141.93359375 326.23828125 C-141.53060059 326.81239746 -141.12760742 327.38651367 -140.71240234 327.97802734 C-112.20896162 367.98722649 -68.80528582 393.99352822 -20.93359375 403.23828125 C-19.85078125 403.45355469 -18.76796875 403.66882813 -17.65234375 403.890625 C28.93435034 412.11533775 78.28736186 399.75746493 117.06640625 373.23828125 C125.41085616 367.21459924 133.19373116 360.7106743 140.63427734 353.60302734 C142.01339678 352.28879658 143.40875838 350.99167464 144.8046875 349.6953125 C176.28823702 319.57863199 196.97083055 273.63709939 198.35684204 229.97773743 C198.43486193 226.251699 198.45115327 222.52754095 198.44140625 218.80078125 C198.44086243 218.01347626 198.4403186 217.22617126 198.4397583 216.41500854 C198.39742346 203.02382228 197.31949741 190.27262623 194.06640625 177.23828125 C193.84146484 176.33062012 193.61652344 175.42295898 193.38476562 174.48779297 C187.50369728 151.38880347 178.1252477 129.59270925 164.06640625 110.23828125 C163.32003906 109.20703125 162.57367188 108.17578125 161.8046875 107.11328125 C157.3358654 101.06969661 152.53711441 95.3876419 147.44140625 89.86328125 C146.92747314 89.30463379 146.41354004 88.74598633 145.8840332 88.17041016 C111.42962789 51.50983343 64.08501523 33.74838719 14.62890625 31.05078125 C-35.89491285 29.99820169 -83.37860243 50.30531128 -119.53662109 84.90429688 Z " fill="#000000" transform="translate(206.93359375,-0.23828125)"/>
</svg>
